<svg id="Layer_1" data-name="Layer 1" xmlns="http://www.w3.org/2000/svg" viewBox="0 0 48 48"><path d="M13.41,37.42h1v3.2h4v-3.2h1v7.66h-1V41.49h-4v3.59h-1Z"/><path d="M21.77,42.46c0,1.13.58,1.94,1.53,1.94a1.29,1.29,0,0,0,1.34-.86h1a2.29,2.29,0,0,1-2.36,1.67c-1.75,0-2.46-1.43-2.46-2.86,0-1.66.83-3,2.53-3A2.37,2.37,0,0,1,25.72,42c0,.17,0,.31,0,.46Zm3-.67c0-.93-.48-1.67-1.42-1.67s-1.42.69-1.52,1.67Z"/><path d="M27,45.08V37h1v8.08Z"/><path d="M29.59,47.26v-6.4c0-.46,0-.93,0-1.36h.93c0,.18,0,.51,0,.88a1.93,1.93,0,0,1,1.83-1c1.29,0,2.22,1.07,2.22,2.77,0,2-1.06,3.07-2.42,3.07a1.71,1.71,0,0,1-1.63-.83v2.88Zm2.53-7.07c-1.16,0-1.62.73-1.62,2.09s.38,2.11,1.54,2.11,1.56-.83,1.56-2.21C33.6,41,33.06,40.19,32.12,40.19Z"/><path d="M8.7,16.7a15.3,15.3,0,1,1,30.6,0,15.3,15.3,0,1,1-30.6,0ZM13.56,24,17,20.58a8,8,0,0,1-.05-7.69L13.48,9.45a12.92,12.92,0,0,0-2.22,7.25A12.63,12.63,0,0,0,13.56,24ZM27.89,9.68l3.43-3.44A12.74,12.74,0,0,0,24,4a12.59,12.59,0,0,0-7.27,2.26l3.45,3.45a8,8,0,0,1,7.73,0Zm3.36,17.53L27.8,23.76a8,8,0,0,1-7.55,0L16.8,27.23A12.58,12.58,0,0,0,24,29.45,12.78,12.78,0,0,0,31.25,27.21ZM29.49,16.7A5.49,5.49,0,1,0,24,22.19,5.49,5.49,0,0,0,29.49,16.7ZM31,20.55,34.49,24a12.82,12.82,0,0,0,2.26-7.29,12.69,12.69,0,0,0-2.22-7.22l-3.45,3.45a8,8,0,0,1,0,7.62Z"/></svg>