<svg id="Layer_1" data-name="Layer 1" xmlns="http://www.w3.org/2000/svg" viewBox="0 0 48 48"><path d="M18.72,41.82c0-1.43,0-2.87.05-3.68h0c-.33,1.25-1.57,4.53-2.45,6.94h-.91c-.66-2-1.95-5.65-2.29-7h0c0,.89.09,2.59.09,3.91v3h-1V37.42h1.51c.87,2.37,1.93,5.44,2.2,6.41h0c.19-.74,1.44-4.09,2.34-6.41h1.47v7.66h-1Z"/><path d="M26.26,42.27a2.64,2.64,0,0,1-2.63,2.94c-1.59,0-2.56-1.24-2.56-2.92a2.62,2.62,0,0,1,2.63-2.92C25.25,39.37,26.26,40.52,26.26,42.27Zm-4.2,0c0,1.23.61,2.12,1.62,2.12s1.59-.84,1.59-2.11-.57-2.12-1.62-2.12S22.06,41,22.06,42.28Z"/><path d="M27.51,41c0-.79,0-1.23,0-1.52h.95c0,.15,0,.59,0,1.13a2,2,0,0,1,1.87-1.26v1a1.78,1.78,0,0,0-1.87,2v2.71h-1Z"/><path d="M31.87,42.46c0,1.13.58,1.94,1.53,1.94a1.28,1.28,0,0,0,1.34-.86h1a2.27,2.27,0,0,1-2.35,1.67c-1.75,0-2.47-1.43-2.47-2.86,0-1.66.84-3,2.53-3A2.36,2.36,0,0,1,35.82,42c0,.17,0,.31,0,.46Zm3-.67c0-.93-.47-1.67-1.42-1.67s-1.42.69-1.52,1.67Z"/><path d="M11,17.62a2.77,2.77,0,1,1,2.75,2.75A2.75,2.75,0,0,1,11,17.62Zm10.23,0A2.74,2.74,0,1,1,24,20.37,2.73,2.73,0,0,1,21.27,17.62Zm10.17,0a2.76,2.76,0,1,1,2.77,2.75A2.74,2.74,0,0,1,31.44,17.62Z"/></svg>