<svg id="Layer_1" data-name="Layer 1" xmlns="http://www.w3.org/2000/svg" viewBox="0 0 48 48"><path d="M15.34,37.42h2.94c1.62,0,2.37.86,2.37,1.91A1.68,1.68,0,0,1,19.55,41a1.9,1.9,0,0,1,1.35,1.83,2.27,2.27,0,0,1-2.55,2.25h-3Zm2.74,3.19c1.11,0,1.54-.44,1.54-1.19s-.48-1.15-1.38-1.15H16.33v2.34Zm-1.75,3.63h1.9c.95,0,1.62-.45,1.62-1.41s-.52-1.39-1.82-1.39h-1.7Z"/><path d="M26.66,43.45c0,.55,0,1.3,0,1.63h-.93c0-.15,0-.49,0-.84a1.64,1.64,0,0,1-1.68,1c-1,0-1.85-.48-1.85-2.05V39.5h1V43c0,.73.23,1.41,1.15,1.41s1.42-.57,1.42-2V39.5h1Z"/><path d="M28.64,39.5c.9,2.67,1.4,4.14,1.55,4.72h0c.18-.64.58-1.92,1.49-4.72h1l-2,5.83c-.57,1.64-1,2.05-2.13,2.05-.17,0-.38,0-.6,0v-.83l.46,0c.7,0,1-.31,1.3-1.24L27.6,39.5Z"/><path d="M40.15,10.14v1.28H7.85V10.14c0-2.83,1.44-4.26,4.32-4.26H35.83C38.72,5.88,40.15,7.31,40.15,10.14Zm-32.3,15V14.54h32.3V25.11c0,2.83-1.43,4.25-4.32,4.25H12.17Q7.85,29.36,7.85,25.11Zm9,0a1.27,1.27,0,0,0,1.35-1.32V21.23a1.26,1.26,0,0,0-1.35-1.31H13.47a1.25,1.25,0,0,0-1.34,1.31v2.55a1.27,1.27,0,0,0,1.34,1.32Z"/></svg>