<svg id="Layer_1" data-name="Layer 1" xmlns="http://www.w3.org/2000/svg" viewBox="0 0 48 48"><path d="M.34,37.42H3.07a3.47,3.47,0,0,1,3.61,3.75A3.6,3.6,0,0,1,3,45.08H.34Zm1,6.8H3c1.8,0,2.65-1.3,2.65-3A2.59,2.59,0,0,0,3,38.29H1.35Z"/><path d="M12.88,42.27a2.65,2.65,0,0,1-2.63,2.94c-1.59,0-2.56-1.24-2.56-2.92a2.62,2.62,0,0,1,2.63-2.92C11.87,39.37,12.88,40.52,12.88,42.27Zm-4.2,0c0,1.23.61,2.12,1.61,2.12s1.6-.84,1.6-2.11-.57-2.12-1.62-2.12S8.68,41,8.68,42.28Z"/><path d="M14.54,39.5c.69,2.62,1.09,4.11,1.19,4.68h0c.1-.51.49-1.91,1.29-4.68H18c.87,3.16,1.14,4.07,1.22,4.57h0c.15-.59.37-1.43,1.24-4.57h1L19.7,45.08H18.65c-.54-2-1.07-3.92-1.2-4.53h0c-.09.61-.59,2.31-1.22,4.53H15.15L13.53,39.5Z"/><path d="M22.31,40.91c0-.49,0-1,0-1.41h.93c0,.16,0,.75,0,.91a1.76,1.76,0,0,1,1.75-1c1.06,0,1.87.63,1.87,2.12v3.59h-1V41.61c0-.85-.33-1.41-1.18-1.41-1.06,0-1.48.8-1.48,1.93v2.95h-1Z"/><path d="M28.53,45.08V37h1v8.08Z"/><path d="M35.94,42.27a2.65,2.65,0,0,1-2.63,2.94,2.61,2.61,0,0,1-2.57-2.92,2.63,2.63,0,0,1,2.63-2.92A2.59,2.59,0,0,1,35.94,42.27Zm-4.21,0c0,1.23.62,2.12,1.62,2.12s1.6-.84,1.6-2.11-.58-2.12-1.62-2.12S31.73,41,31.73,42.28Z"/><path d="M41.35,43.85a9.71,9.71,0,0,0,.07,1.23H40.5a3.12,3.12,0,0,1-.09-.73,1.78,1.78,0,0,1-1.72.86A1.69,1.69,0,0,1,36.8,43.5c0-1.24,1-1.81,2.64-1.81h1v-.48c0-.49-.15-1.09-1.2-1.09s-1.09.47-1.19.9h-.93c.08-.77.55-1.65,2.15-1.65,1.37,0,2.13.56,2.13,1.82Zm-1-1.49h-.9c-1.11,0-1.71.31-1.71,1.09a1,1,0,0,0,1.09,1c1.35,0,1.52-.9,1.52-1.92Z"/><path d="M47.65,37v6.5c0,.52,0,1,0,1.58h-.92a4.74,4.74,0,0,1-.06-.8,1.72,1.72,0,0,1-1.75.93c-1.44,0-2.32-1.17-2.32-2.86s1-3,2.5-3c1,0,1.43.39,1.57.71V37Zm-2.52,7.39c1.3,0,1.6-1,1.6-2.19s-.27-2-1.52-2c-1,0-1.6.78-1.6,2.13S44.25,44.39,45.13,44.39Z"/><path d="M2.37,27.21A1.71,1.71,0,0,1,4.06,25.5H7.35V7.7a2.9,2.9,0,0,1,3.21-3.18H20.88V6.93H11.2A1.27,1.27,0,0,0,9.76,8.37V25.5H38.24V8.37A1.27,1.27,0,0,0,36.8,6.93H27.12V4.52H37.44c2.09,0,3.21,1.08,3.21,3.18V25.5h3.29a1.71,1.71,0,0,1,0,3.42H4.06A1.7,1.7,0,0,1,2.37,27.21ZM24,0a1.06,1.06,0,0,1,1.08,1.08V13l-.15,3.16,2.93-3.28.87-.86a1.16,1.16,0,0,1,.79-.31,1,1,0,0,1,1,1,1.1,1.1,0,0,1-.33.79L24.81,19a1.21,1.21,0,0,1-.81.39,1.27,1.27,0,0,1-.81-.39l-5.42-5.45a1.1,1.1,0,0,1-.33-.79,1,1,0,0,1,1-1,1.16,1.16,0,0,1,.79.31l.87.86,2.93,3.28L22.94,13V1.08A1,1,0,0,1,24,0Z"/></svg>